<svg viewBox="0 0 128 128" xmlns="http://www.w3.org/2000/svg"><radialGradient id="a" cx="-779.87" cy="686.69" r="91.01" gradientTransform="scale(1 -1)rotate(45 506.87 1318.9)" gradientUnits="userSpaceOnUse"><stop stop-color="#e0bb95" offset=".35"/><stop stop-color="#cca47a" offset=".87"/></radialGradient><path d="M59.53 107.44c-3.95-3.17-40.63-38.84-41.04-39.23-1.62-1.62-2.64-3.3-2.92-4.84-.29-1.6.2-3 1.5-4.3a6 6 0 0 1 4.28-1.85c1.94 0 3.93.92 5.59 2.59l16.63 15.98c.29.28.67.42 1.04.42a1.5 1.5 0 0 0 1.07-2.54L19.13 46.25c-2.66-2.66-3.91-6.73-.75-9.89a6 6 0 0 1 4.28-1.85c1.94 0 3.93.92 5.59 2.59l27.16 26.48a1.5 1.5 0 0 0 2.11-.01 1.5 1.5 0 0 0 .01-2.11L24.91 28.02a8.4 8.4 0 0 1-2.58-5.08 6 6 0 0 1 1.83-4.8 6 6 0 0 1 4.28-1.85c1.94 0 3.93.92 5.59 2.58L67.3 51.31a1.5 1.5 0 0 0 2.11-.01 1.5 1.5 0 0 0 .01-2.11L45.26 24.36a8.4 8.4 0 0 1-2.58-5.08 6 6 0 0 1 1.83-4.8 6 6 0 0 1 4.28-1.85c1.94 0 3.93.92 5.59 2.59 8.86 8.7 31.99 31.45 32.77 32.29 2.97 2.05 3.57-1.05 3.72-3.06.17-2.34-2.51-10.51-.95-17.86 2.62-9.77 10.17-8.17 10.34-8.09 4.14 1.94 3.35 4.84 1.88 10.67l-.15 1.15c-1.54 7.62 9.04 30.2 9.82 31.89 4.15 9.08 8.93 27.49-6.9 43.32-17.35 17.35-38.83 8.46-45.38 1.91" fill="url(#a)"/><path d="M81.79 117.18c-10.64 0-19.69-5.09-23.26-8.62-3.21-2.62-23.47-22.18-39.97-38.19l-1.1-1.07c-1.87-1.87-3.03-3.82-3.36-5.66q-.56-3.15 1.91-5.63a7.4 7.4 0 0 1 5.34-2.29c2.35 0 4.71 1.08 6.65 3.03l16.61 15.96-26.56-27.42c-3.06-3.06-4.6-8.13-.73-11.99a7.4 7.4 0 0 1 5.34-2.29c2.35 0 4.71 1.08 6.65 3.03L56.45 62.5 23.84 29.07a10 10 0 0 1-3-5.99 7.4 7.4 0 0 1 2.26-6 7.4 7.4 0 0 1 5.34-2.29c2.34 0 4.7 1.07 6.65 3.02l33.26 32.43-24.16-24.83a9.8 9.8 0 0 1-3-6 7.4 7.4 0 0 1 2.26-5.99 7.4 7.4 0 0 1 5.34-2.29c2.35 0 4.71 1.08 6.65 3.03l7.21 7.07a5721 5721 0 0 1 24.74 24.33c.56.45 1.29.62 1.6.47.2-.1.42-.56.38-1.53-.06-1.7-.3-3.81-.55-6.04-.5-4.48-1.02-9.12-.37-12.18 1.42-5.31 4.21-7.56 6.29-8.53 2.86-1.32 5.63-.86 6.16-.61 5.2 2.44 4.17 6.52 2.75 12.18l-.03.14-.16 1.17c-1.04 5.12 4.3 19.27 9.64 30.8l.08.16c3.57 7.8 10 27.81-7.2 45.01-7.91 7.89-16.47 10.58-24.19 10.58M21.35 58.72c-1.18 0-2.3.49-3.22 1.41-.95.95-1.28 1.87-1.08 2.97.22 1.21 1.11 2.65 2.5 4.05l1.1 1.06c23.42 22.73 37.56 36.24 39.82 38.06l.12.11c5.52 5.52 26.03 15.32 43.26-1.91 15.87-15.87 9.9-34.4 6.59-41.64l-.07-.15c-3.44-7.42-11.26-25.42-9.87-32.6l.23-1.5c1.54-6.12 1.63-7.4-.98-8.66-.77-.14-6.29-.81-8.4 7.06-.53 2.51-.02 7.1.43 11.15.26 2.29.5 4.46.56 6.27.1 2.85-1.25 3.94-2.07 4.34-1.67.81-3.66.12-4.9-.92l-.13-.12c-.61-.66-15.12-14.89-24.72-24.31L53.3 16.3c-2.46-2.47-5.63-2.88-7.76-.75a4.4 4.4 0 0 0-1.4 3.61 7 7 0 0 0 2.15 4.15L70.5 48.14a3 3 0 0 1-.02 4.22 3.1 3.1 0 0 1-4.21.03L32.98 19.94c-2.46-2.46-5.64-2.87-7.76-.74a4.4 4.4 0 0 0-1.4 3.61 7 7 0 0 0 2.15 4.14L58.6 60.41a3 3 0 0 1-.02 4.22 3.1 3.1 0 0 1-4.21.03L27.2 38.17c-2.46-2.48-5.64-2.88-7.76-.75-2.59 2.59-1.21 5.8.75 7.77l26.57 27.44a3 3 0 0 1-.03 4.2 3.1 3.1 0 0 1-4.2.04L25.9 60.89c-1.4-1.41-3.01-2.17-4.55-2.17" fill="#ba8f63"/><path d="M84.76 46.54c-5.49 11.21-4.78 26.9 3.46 39.49.93 1.7 2.52.87 1.71-.88-9.95-21.29.48-36.63.48-36.63z" fill="#ba8f63"/><path d="M63.17 4.5c3.02-.79 6.24-.72 9.37.01 3.11.75 6.22 2.33 8.53 4.91a17 17 0 0 1 4.12 8.93c.44 3.23.03 6.56-1.5 9.32q-.27-4.64-1.63-8.58a24 24 0 0 0-1.69-3.74 20 20 0 0 0-2.27-3.28 19 19 0 0 0-6.55-4.65 50 50 0 0 0-8.38-2.92" fill="#b0bec5"/><path d="M64 13.98a8 8 0 0 1 5.73-.93c1.99.35 3.89 1.34 5.39 2.71a13 13 0 0 1 3.21 4.96c.32.91.48 1.87.63 2.8.05.96.05 1.92-.1 2.88a20 20 0 0 1-1.74-2.17c-.59-.67-1.05-1.38-1.58-2.03a36 36 0 0 0-3.14-3.5 20 20 0 0 0-3.67-2.67A24 24 0 0 0 64 13.98" fill="#90a4ae"/><path d="M6.83 77.34a51 51 0 0 0 4.59 7.58 19 19 0 0 0 5.92 5.43 20 20 0 0 0 3.69 1.54q1.94.6 4.01.88 4.13.51 8.73-.19a15 15 0 0 1-8.8 3.41c-3.28.22-6.61-.49-9.59-2.17-3-1.71-5.2-4.43-6.58-7.32a19 19 0 0 1-1.97-9.16" fill="#b0bec5"/><path d="M16.28 76.17a25 25 0 0 0 2.98 4.21 20 20 0 0 0 3.38 3.03c1.24.85 2.6 1.6 4.08 2.35.74.38 1.53.68 2.31 1.12.81.35 1.63.72 2.49 1.25-.91.34-1.84.54-2.79.69-.94.04-1.91.09-2.87-.04a12.6 12.6 0 0 1-5.52-2.1 11 11 0 0 1-3.77-4.71 8 8 0 0 1-.29-5.8" fill="#90a4ae"/></svg>